<svg version="1.1" xmlns="http://www.w3.org/2000/svg" style="display: block;" viewBox="0 0 2048 2048" width="1024" height="1024" preserveAspectRatio="none">
<path transform="translate(0,0)" fill="#FAFAF9" d="M 0 0 L 2048 0 L 2048 2048 L 0 2048 L 0 0 z"/>
<path transform="translate(0,0)" fill="#5B21B6" d="M 568.29 1458.94 C 566.21 1428.91 567.133 1392.82 567.177 1362.31 L 567.182 1215.58 L 567.188 749.511 L 567.236 544.589 C 567.237 531.533 566.157 470.348 568.534 460.548 C 574.815 457.621 723.129 458.949 740.929 458.958 L 818.482 458.997 C 833.371 459.01 850.679 458.611 865.281 459.55 C 866.026 472.008 865.607 487.948 865.62 500.601 L 865.523 575.006 L 865.394 801.768 C 951.86 749.988 1018.86 731.613 1120.13 742.903 C 1144.54 731.349 1180.24 710.578 1205.01 697.448 C 1260.99 667.531 1317.19 638.038 1373.61 608.97 L 1428.4 580.181 C 1439.2 574.511 1450.56 567.918 1461.79 563.385 C 1451.33 580.208 1400.65 628.736 1384.53 644.653 L 1245.21 782.121 C 1272.32 796.068 1289.72 805.419 1314.5 823.419 C 1499.38 957.675 1536.42 1218.75 1403.12 1402.26 C 1394.59 1413.94 1385.44 1425.16 1375.72 1435.86 C 1303.77 1519.89 1187.01 1577.49 1077.09 1584.91 C 1033.2 1587.87 990.202 1587.09 946.217 1587.03 L 758.244 1586.83 L 543.929 1586.61 C 511.783 1586.52 468.421 1587.89 437.501 1585.97 C 444.908 1576.4 475.226 1548.94 485.521 1538.86 C 504.979 1519.68 524.57 1500.63 544.29 1481.72 C 548.57 1477.6 565.007 1461.19 568.29 1458.94 z"/>
<path transform="translate(0,0)" fill="#10B981" d="M 568.29 1458.94 C 566.21 1428.91 567.133 1392.82 567.177 1362.31 L 567.182 1215.58 L 567.188 749.511 L 567.236 544.589 C 567.237 531.533 566.157 470.348 568.534 460.548 C 574.815 457.621 723.129 458.949 740.929 458.958 L 818.482 458.997 C 833.371 459.01 850.679 458.611 865.281 459.55 C 866.026 472.008 865.607 487.948 865.62 500.601 L 865.523 575.006 L 865.394 801.768 C 951.86 749.988 1018.86 731.613 1120.13 742.903 C 1144.54 731.349 1180.24 710.578 1205.01 697.448 C 1260.99 667.531 1317.19 638.038 1373.61 608.97 L 1428.4 580.181 C 1439.2 574.511 1450.56 567.918 1461.79 563.385 C 1451.33 580.208 1400.65 628.736 1384.53 644.653 L 1245.21 782.121 L 1076.37 950.129 C 1063.38 963.197 1050.24 976.116 1036.95 988.882 C 1030.78 994.741 1016.41 1007.58 1011.79 1013.25 C 982.784 1041.46 954.064 1069.97 925.634 1098.76 C 911.634 1112.83 897.2 1126.8 883.626 1141.28 C 881.336 1143.73 881.531 1144.91 880.446 1147.69 C 877.443 1189.19 886.182 1214.83 909.681 1248.92 C 887.702 1259.3 854.536 1281.38 832.773 1294.62 L 672.743 1394.02 C 641.528 1413.77 600.814 1441.16 569.3 1457.78 L 568.29 1458.94 z"/>
<path transform="translate(0,0)" fill="#1C1917" d="M 569.3 1457.78 C 574.02 1451.38 588.037 1438.4 594.313 1431.64 C 616.548 1407.68 639.833 1385.14 663.122 1362.24 L 800.32 1224.81 L 855.679 1169.49 C 860.637 1164.54 874.507 1149.9 879.336 1146.53 L 880.446 1147.69 C 877.443 1189.19 886.182 1214.83 909.681 1248.92 C 887.702 1259.3 854.536 1281.38 832.773 1294.62 L 672.743 1394.02 C 641.528 1413.77 600.814 1441.16 569.3 1457.78 z"/>
<path transform="translate(0,0)" fill="#F43F5E" d="M 909.681 1248.92 C 931.373 1274.22 951.287 1289.05 982.594 1302.06 C 989.715 1305.02 999.417 1307 1004.16 1308.91 C 1010.4 1313.31 1042.49 1323.68 1050.79 1326.55 C 1098.49 1343.08 1146.68 1358.17 1194.51 1374.44 L 1315.64 1415.59 C 1331.19 1420.88 1361.09 1432.18 1375.72 1435.86 C 1303.77 1519.89 1187.01 1577.49 1077.09 1584.91 C 1033.2 1587.87 990.202 1587.09 946.217 1587.03 L 758.244 1586.83 L 543.929 1586.61 C 511.783 1586.52 468.421 1587.89 437.501 1585.97 C 444.908 1576.4 475.226 1548.94 485.521 1538.86 C 504.979 1519.68 524.57 1500.63 544.29 1481.72 C 548.57 1477.6 565.007 1461.19 568.29 1458.94 L 569.3 1457.78 C 600.814 1441.16 641.528 1413.77 672.743 1394.02 L 832.773 1294.62 C 854.536 1281.38 887.702 1259.3 909.681 1248.92 z"/>
<path transform="translate(0,0)" fill="#FAFAF9" d="M 1011.79 1013.25 C 1097.07 1004.25 1176.81 1059.76 1185.39 1147.31 C 1185.95 1153.5 1186.15 1159.73 1185.98 1165.95 C 1181.25 1195.96 1174.04 1222 1155.4 1246.79 C 1119.42 1294.64 1062.78 1314.71 1004.16 1308.91 C 999.417 1307 989.715 1305.02 982.594 1302.06 C 951.287 1289.05 931.373 1274.22 909.681 1248.92 C 886.182 1214.83 877.443 1189.19 880.446 1147.69 C 881.531 1144.91 881.336 1143.73 883.626 1141.28 C 897.2 1126.8 911.634 1112.83 925.634 1098.76 C 954.064 1069.97 982.784 1041.46 1011.79 1013.25 z"/>
<path transform="translate(0,0)" fill="#1C1917" d="M 1245.21 782.121 C 1272.32 796.068 1289.72 805.419 1314.5 823.419 C 1303.96 847.172 1292.22 881.698 1282.79 906.652 L 1217.13 1082.98 C 1212.23 1096.37 1191.9 1157.95 1185.98 1165.95 C 1186.15 1159.73 1185.95 1153.5 1185.39 1147.31 C 1176.81 1059.76 1097.07 1004.25 1011.79 1013.25 C 1016.41 1007.58 1030.78 994.741 1036.95 988.882 C 1050.24 976.116 1063.38 963.197 1076.37 950.129 L 1245.21 782.121 z"/>
</svg>